<svg xmlns="http://www.w3.org/2000/svg" viewBox="46.0 60.0 1258.0 794.0" width="1258" height="794" font-family="Segoe Print, Comic Sans MS, Bradley Hand, cursive">
<defs><marker id="ah-GradeEngine" viewBox="0 0 10 10" refX="8" refY="5" markerWidth="7" markerHeight="7" orient="auto-start-reverse"><path d="M0,0 L10,5 L0,10 z" fill="#1e1e1e"/></marker></defs>
<g data-beat="1"><text x="70.00" y="102.00" font-size="20" fill="#0f766e">The weekly loop</text></g>
<g data-beat="1"><rect x="270.00" y="170.00" width="240.00" height="100.00" rx="16.0" ry="16.0" fill="#e7f5ff" stroke="#1971c2" stroke-width="2"/></g>
<g data-beat="1"><text x="390.00" y="213.70" font-size="18" fill="#1e1e1e" text-anchor="middle"><tspan x="390.00">Pre-class</tspan><tspan x="390.00" dy="22.50">blog comment · 10%</tspan></text></g>
<g data-beat="2"><path d="M 492.00,274.00 L 566.00,452.00" fill="none" stroke="#1971c2" stroke-width="2" stroke-linecap="round" stroke-linejoin="round" marker-end="url(#ah-GradeEngine)"/></g>
<g data-beat="2"><rect x="470.00" y="460.00" width="240.00" height="100.00" rx="16.0" ry="16.0" fill="#e7f5ff" stroke="#1971c2" stroke-width="2"/></g>
<g data-beat="2"><text x="590.00" y="503.70" font-size="18" fill="#1e1e1e" text-anchor="middle"><tspan x="590.00">In-class</tspan><tspan x="590.00" dy="22.50">simulation · 20%</tspan></text></g>
<g data-beat="3"><path d="M 462.00,510.00 L 320.00,510.00" fill="none" stroke="#1971c2" stroke-width="2" stroke-linecap="round" stroke-linejoin="round" marker-end="url(#ah-GradeEngine)"/></g>
<g data-beat="3"><rect x="70.00" y="460.00" width="240.00" height="100.00" rx="16.0" ry="16.0" fill="#e7f5ff" stroke="#1971c2" stroke-width="2"/></g>
<g data-beat="3"><text x="190.00" y="503.70" font-size="18" fill="#1e1e1e" text-anchor="middle"><tspan x="190.00">After-class</tspan><tspan x="190.00" dy="22.50">reflection · 30%</tspan></text></g>
<g data-beat="3"><path d="M 202.00,454.00 L 282.00,278.00" fill="none" stroke="#1971c2" stroke-width="2" stroke-linecap="round" stroke-linejoin="round" marker-end="url(#ah-GradeEngine)"/></g>
<g data-beat="3"><text x="390.00" y="366.60" font-size="24" fill="#0f766e" text-anchor="middle"><tspan x="390.00">Every</tspan><tspan x="390.00" dy="30.00">week</tspan></text></g>
<g data-beat="4"><rect x="70.00" y="610.00" width="640.00" height="80.00" rx="16.0" ry="16.0" fill="#e6fffa" stroke="#0f766e" stroke-width="2"/></g>
<g data-beat="4"><text x="390.00" y="656.60" font-size="24" fill="#1e1e1e" text-anchor="middle">Individual work — 60%</text></g>
<g data-beat="5"><text x="880.00" y="102.00" font-size="20" fill="#0f766e">The team milestones</text></g>
<g data-beat="5"><rect x="880.00" y="170.00" width="400.00" height="90.00" rx="16.0" ry="16.0" fill="#e7f5ff" stroke="#1971c2" stroke-width="2"/></g>
<g data-beat="5"><text x="1080.00" y="208.70" font-size="18" fill="#1e1e1e" text-anchor="middle"><tspan x="1080.00">Team Register · 5%</tspan><tspan x="1080.00" dy="22.50">Week 1</tspan></text></g>
<g data-beat="5"><path d="M 1080.00,264.00 L 1080.00,316.00" fill="none" stroke="#1971c2" stroke-width="2" stroke-linecap="round" stroke-linejoin="round" marker-end="url(#ah-GradeEngine)"/></g>
<g data-beat="5"><rect x="880.00" y="320.00" width="400.00" height="90.00" rx="16.0" ry="16.0" fill="#e7f5ff" stroke="#1971c2" stroke-width="2"/></g>
<g data-beat="5"><text x="1080.00" y="358.70" font-size="18" fill="#1e1e1e" text-anchor="middle"><tspan x="1080.00">Midterm pitch + report · 15%</tspan><tspan x="1080.00" dy="22.50">Week 7</tspan></text></g>
<g data-beat="5"><path d="M 1080.00,414.00 L 1080.00,466.00" fill="none" stroke="#1971c2" stroke-width="2" stroke-linecap="round" stroke-linejoin="round" marker-end="url(#ah-GradeEngine)"/></g>
<g data-beat="5"><rect x="880.00" y="470.00" width="400.00" height="90.00" rx="16.0" ry="16.0" fill="#e7f5ff" stroke="#1971c2" stroke-width="2"/></g>
<g data-beat="5"><text x="1080.00" y="508.70" font-size="18" fill="#1e1e1e" text-anchor="middle"><tspan x="1080.00">Final pitch + report · 20%</tspan><tspan x="1080.00" dy="22.50">Week 15 + Finals</tspan></text></g>
<g data-beat="6"><rect x="880.00" y="610.00" width="400.00" height="80.00" rx="16.0" ry="16.0" fill="#e6fffa" stroke="#0f766e" stroke-width="2"/></g>
<g data-beat="6"><text x="1080.00" y="656.60" font-size="24" fill="#1e1e1e" text-anchor="middle">Team venture — 40%</text></g>
<g data-beat="7"><path d="M 1080.00,692.00 L 1080.00,726.00" fill="none" stroke="#0f766e" stroke-width="2" stroke-linecap="round" stroke-linejoin="round" marker-end="url(#ah-GradeEngine)"/></g>
<g data-beat="7"><path d="M 712.00,650.00 L 792.00,650.00 L 792.00,772.00 L 876.00,772.00" fill="none" stroke="#0f766e" stroke-width="2" stroke-linecap="round" stroke-linejoin="round" marker-end="url(#ah-GradeEngine)"/></g>
<g data-beat="7"><ellipse cx="1080.00" cy="780.00" rx="200.00" ry="50.00" fill="#fff4e6" stroke="#b45309" stroke-width="2"/></g>
<g data-beat="7"><text x="1080.00" y="786.60" font-size="24" fill="#1e1e1e" text-anchor="middle">Your grade — 100%</text></g>
<g data-beat="8"><path d="M 390.00,692.00 L 390.00,726.00" fill="none" stroke="#b45309" stroke-width="2" stroke-dasharray="8 6" stroke-linecap="round" stroke-linejoin="round" marker-end="url(#ah-GradeEngine)"/></g>
<g data-beat="8"><rect x="70.00" y="730.00" width="640.00" height="100.00" rx="16.0" ry="16.0" fill="#fff4e6" stroke="#b45309" stroke-width="2" stroke-dasharray="8 6"/></g>
<g data-beat="8"><text x="390.00" y="774.05" font-size="17" fill="#1e1e1e" text-anchor="middle"><tspan x="390.00">Miss a week? Up to 3 exemptions — interview a classmate</tspan><tspan x="390.00" dy="21.25">about the simulation and submit the reflection.</tspan></text></g>
</svg>